<?xml version="1.0" encoding="utf-8"?>
<!-- Generator: Adobe Illustrator 26.0.1, SVG Export Plug-In . SVG Version: 6.00 Build 0)  -->
<svg version="1.1" id="Calque_1" xmlns="http://www.w3.org/2000/svg" xmlns:xlink="http://www.w3.org/1999/xlink" x="0px" y="0px"
	 viewBox="0 0 150 150" style="enable-background:new 0 0 150 150;" xml:space="preserve" transform="rotate(-25)">
<g opacity="0.06">
	<path d="M8.03,70.68C7.78,65.43,7.5,60.47,7.36,55.5c-0.04-1.29,0.29-2.63,0.63-3.89c1.7-6.34,6.45-9.03,12.78-7.2
		c5.29,1.53,9.62,4.7,13.7,8.26c0.77,0.68,1.53,1.37,2.31,2.07c2.3-2.71,4.41-5.45,6.79-7.93c2.53-2.64,5.55-4.5,9.38-4.75
		c0.64-0.04,1.52-0.63,1.81-1.2c0.71-1.41,1.14-2.96,1.82-4.83c-1.2-0.11-2.18-0.26-3.17-0.28c-4.16-0.09-8.31-0.09-12.47-0.22
		c-3.17-0.1-4.43-1.4-4.48-4.56c-0.06-3.4-0.05-6.8,0-10.2c0.05-3.28,1.18-4.42,4.43-4.51c20.02-0.55,40.04-1.09,60.06-1.61
		c13.79-0.36,27.57-0.71,41.36-1.06c4.68-0.12,5.71,0.87,5.71,5.47c0,4.72,0.01,9.45,0,14.17c-0.01,3.82-1.03,4.83-4.93,4.74
		c-15.11-0.36-30.22-0.69-45.33-1.18c-2.59-0.08-3.81,0.5-4.93,3.11c-2.43,5.65-1.82,10.8,0.9,15.77c3.9-0.3,7.73-0.99,11.51-0.81
		c9.16,0.44,14.9,5.73,16.67,14.69c0.12,0.62,0.61,1.41,1.15,1.67c5.38,2.58,5.04,9.91,0.12,12.3c-0.62,0.3-1.14,1.38-1.22,2.15
		c-1.86,17.63-10.5,30.79-26.01,39.36c-1.81,1-2.55,1.97-2.52,4.07c0.11,7.85-0.07,7.95-7.8,7.95c-14.64,0-29.29,0-43.93,0
		c-4.29,0-5.33-1.06-5.35-5.34c0-0.19-0.03-0.38,0-0.57c0.57-3.36-0.73-5.18-3.85-6.98c-14.75-8.5-22.89-21.45-24.6-38.42
		c-0.08-0.78-0.57-1.81-1.2-2.18c-2.6-1.55-4.07-3.68-3.82-6.73c0.25-3.05,2.06-4.96,4.87-5.99C8,70.74,8.22,70.58,8.03,70.68z
		 M16.36,100.42c0.19,0.68,0.22,1.05,0.38,1.37c4.7,9.25,11.77,16.07,21.16,20.45c0.97,0.45,2.18,0.57,3.28,0.58
		c6.04,0.05,12.09,0.04,18.13,0.02c1.58-0.01,3.37-0.03,3.41,2c0.05,2.25-1.86,2.18-3.52,2.18c-3.4-0.01-6.8,0-10.2,0
		c-2.69,0-5.39,0-8.05,0c0,2.12,0,3.77,0,5.42c16.11,0,32.02,0,47.93,0c0-1.85,0-3.5,0-5.42c-6.1,0-12.03-0.01-17.96,0.01
		c-1.6,0-3.33-0.07-3.31-2.12c0.02-2.04,1.77-2.07,3.36-2.06c5.86,0.02,11.71,0.05,17.57-0.03c1.28-0.02,2.66-0.23,3.8-0.78
		c8.79-4.19,15.53-10.59,20.15-19.17c0.38-0.7,0.64-1.47,1.05-2.44C81.03,100.42,48.85,100.42,16.36,100.42z M11.89,84.21
		c0.62,3.35,1.22,6.19,1.64,9.07c0.34,2.3,1.43,2.94,3.78,2.93c25.61-0.1,51.22-0.06,76.83-0.06c6.33,0,12.66,0.06,18.99-0.07
		c0.94-0.02,2.47-0.8,2.67-1.53c0.9-3.23,1.41-6.56,2.16-10.33c-1.69,0-2.79,0-3.89,0c-13.89,0-27.78,0-41.68,0
		c-0.85,0-1.83,0.21-2.51-0.14c-0.79-0.41-1.92-1.45-1.81-2c0.17-0.84,1.18-1.66,2.02-2.15c0.57-0.33,1.48-0.08,2.23-0.08
		c15.5,0,31-0.01,46.49,0.01c1.78,0,3.66,0.02,3.71-2.37c0.06-2.59-1.95-2.6-3.81-2.62c-0.28,0-0.57,0-0.85,0
		c-35.34,0-70.69,0-106.03,0.01c-0.94,0-2.06-0.19-2.77,0.25c-0.81,0.51-1.76,1.65-1.7,2.45c0.06,0.8,1.18,1.68,2.04,2.19
		c0.56,0.34,1.47,0.09,2.23,0.09c12.85,0,25.7,0,38.56,0c3.21,0,6.44-0.18,9.63,0.1c1.07,0.09,2.04,1.36,3.06,2.09
		c-1.03,0.73-2,1.56-3.11,2.13c-0.52,0.27-1.3,0.05-1.96,0.05c-14.08,0-28.16,0-42.24,0C14.56,84.21,13.54,84.21,11.89,84.21z
		 M143.55,17.92c-34.3,0.86-68.42,1.71-102.56,2.57c0,1.2,0,2.09,0,2.99c34.29,0,68.42,0,102.56,0
		C143.55,21.59,143.55,19.93,143.55,17.92z M36.92,70.76c1.29-0.14,2.48-0.26,3.98-0.42c-0.61-2-0.82-3.66-1.59-5
		c-4.54-7.98-11.09-13.73-19.8-16.73c-3.98-1.37-6.39,0.08-7.41,4.13c-1.52,6.02-0.54,11.92,1.06,17.8c1.66,0,3.13,0,4.56,0
		c1.61-6.12,4.58-8.94,9.37-9.02C32.1,61.43,35.02,64.07,36.92,70.76z M94.94,32.55c16.26,0.4,32.33,0.8,48.58,1.2
		c0-1.98,0-3.7,0-5.56c-16.47,0-32.74,0-49.14,0C94.56,29.61,94.73,30.89,94.94,32.55z M117.14,70.54
		c1.65-6.3-6.87-11.87-13.55-11.51c0.56,1.21,1.18,2.35,1.63,3.57c0.53,1.42,0.7,3.11-1.13,3.43c-0.82,0.14-1.99-1.09-2.83-1.87
		c-1.33-1.24-2.41-2.78-3.85-3.85c-0.4-0.29-2.32,0.47-2.51,1.08c-0.94,2.99-1.54,6.08-2.27,9.16
		C100.63,70.54,108.9,70.54,117.14,70.54z M53.79,46.17c-1.47,0.37-2.64,0.35-3.35,0.9c-2.29,1.77-4.64,3.55-6.54,5.7
		c-4.19,4.74-4.08,4.83-0.84,10.17c0.09,0.15,0.27,0.24,0.51,0.45c4.68-2.34,8.96-1.59,12.73,2.49
		C59.49,58.5,52.82,53.11,53.79,46.17z M78.47,28.28c-0.46,3.28-0.23,6.67-1.45,9.41c-2.8,6.3-3.02,12.2,0.05,18.45
		c2.03,4.14,1.51,8.44-0.75,12.48c-0.31,0.56-0.54,1.16-0.81,1.73c0.11,0.22,0.23,0.44,0.34,0.66c1.16-0.46,2.82-0.58,3.39-1.43
		c2.91-4.37,4.04-8.96,1.42-14.07c-2.88-5.63-2.58-11.39-0.08-17.19c0.91-2.11,1.5-4.5,1.55-6.79
		C82.2,28.23,81.31,27.76,78.47,28.28z M84.16,70.85c1.08-0.28,2.73-0.22,3.15-0.9c2.49-4.08,4.6-8.35,2.09-13.26
		c-3.32-6.51-3.2-12.96-0.05-19.56c0.85-1.77,0.99-4,1.02-6.02c0.03-2.6-1.36-3.77-4.3-2.71c1.37,5.04-0.63,9.55-2.4,14.1
		c-1.19,3.04-1.25,6.12,0.1,9.09c2.81,6.18,4.05,12.34,0.25,18.59C83.98,70.24,84.05,70.36,84.16,70.85z M58.87,70.29
		c0.17,0.22,0.35,0.43,0.52,0.65c1.06-0.35,2.64-0.37,3.09-1.1c2.62-4.18,4.44-8.54,1.86-13.54c-3.21-6.22-3-12.45-0.06-18.78
		c0.88-1.89,1.3-4.19,1.21-6.28c-0.14-3.22-0.93-3.55-4.35-2.75c1.29,4.55-0.2,8.71-1.97,12.81c-1.62,3.75-1.63,7.48-0.04,11.26
		c0.8,1.91,1.5,3.87,2.08,5.85C62.47,62.71,60.92,66.55,58.87,70.29z M66.85,71.15c1.8-0.57,3.45-0.58,3.96-1.35
		c2.82-4.25,4.25-8.8,1.73-13.8c-3.06-6.06-2.82-12.08-0.04-18.22c0.86-1.9,1.23-4.16,1.26-6.27c0.05-3.35-0.7-3.76-3.39-3.27
		c-0.74,3.89-0.89,7.71-2.23,11.05c-2.15,5.35-2.29,10.29,0.17,15.51c2.06,4.36,2.32,8.88-0.04,13.31
		C67.86,68.84,67.56,69.61,66.85,71.15z M40.95,31.3c5.61,0,10.91,0,16.21,0c0.17-0.19,0.34-0.39,0.51-0.58
		c-0.85-0.89-1.66-2.5-2.56-2.55c-4.67-0.26-9.36-0.12-14.16-0.12C40.95,29.2,40.95,30.01,40.95,31.3z M32.21,70.54
		c-0.81-3.36-2.61-4.97-5.15-4.84c-2.52,0.13-4.17,1.87-4.5,4.84C25.73,70.54,28.88,70.54,32.21,70.54z M53.17,70.52
		c-0.8-3.16-3.05-4.8-5.61-4.08c-1.96,0.56-3.43,1.56-2.4,4.08C47.83,70.52,50.48,70.52,53.17,70.52z"/>
	<path d="M78.98,93.27c-1.05-1.51-2.05-2.34-2.05-3.16c0-0.7,1.25-2.03,1.78-1.96c0.84,0.12,2.05,1.1,2.19,1.87
		C81.02,90.76,79.97,91.7,78.98,93.27z"/>
	<path d="M40.06,90.18c-1.56,0.99-2.5,2.05-3.24,1.92c-0.78-0.13-1.76-1.33-1.89-2.19c-0.08-0.52,1.26-1.78,1.97-1.78
		C37.73,88.14,38.55,89.14,40.06,90.18z"/>
	<path d="M96,90.09c-1.52,1.04-2.42,2.13-3.13,2.02c-0.79-0.13-1.78-1.28-1.94-2.13c-0.1-0.52,1.18-1.83,1.87-1.84
		C93.61,88.11,94.46,89.08,96,90.09z"/>
	<path d="M22.98,93.33c-1.03-1.59-1.97-2.42-1.97-3.24c0.01-0.7,1.23-2.02,1.71-1.93c0.84,0.16,1.99,1.1,2.11,1.86
		C24.95,90.77,23.96,91.69,22.98,93.33z"/>
	<path d="M50.75,86.97c1.07,1.52,2.05,2.32,2.07,3.14c0.01,0.7-1.21,2.07-1.68,1.98c-0.86-0.16-2.04-1.06-2.21-1.84
		C48.79,89.53,49.8,88.57,50.75,86.97z"/>
	<path d="M64.93,86.93c0.99,1.6,2.01,2.51,1.89,3.24c-0.13,0.78-1.32,1.38-2.05,2.06c-0.63-0.69-1.74-1.36-1.76-2.06
		C62.98,89.36,63.92,88.52,64.93,86.93z"/>
	<path d="M110.01,90.14c-1.57,1.03-2.49,2.09-3.18,1.96c-0.76-0.15-1.71-1.34-1.82-2.17c-0.07-0.55,1.18-1.79,1.85-1.8
		C107.66,88.11,108.47,89.09,110.01,90.14z"/>
</g>
</svg>
