<?xml version="1.0" encoding="utf-8"?>
<!-- Generator: Adobe Illustrator 26.0.1, SVG Export Plug-In . SVG Version: 6.00 Build 0)  -->
<svg version="1.1" id="Calque_1" xmlns="http://www.w3.org/2000/svg" xmlns:xlink="http://www.w3.org/1999/xlink" x="0px" y="0px"
	 viewBox="0 0 933 161" style="enable-background:new 0 0 933 161;" xml:space="preserve" fill="#E33F3F">
<path class="st0" d="M544.53,2.05c-0.1,8.33-0.26,16.65-0.31,24.98c0,9.61-3.67,13.29-13.31,13.5c-1.92,0-3.86,0.23-6.29,0.37
	c0,5.75-0.16,11.11,0.14,16.44c0.48,1.34,1.61,2.35,3,2.67c3.25,0.38,6.57,0,9.85,0.21c4.3,0.19,6.62,2.45,6.59,6.86v5.89
	c0,4-2.1,6.04-6.03,6.17c-2.96,0.17-5.92,0.17-8.87,0c-3.7-0.3-4.79,1.17-4.77,4.79c0.16,18.13,0.09,36.28,0.09,54.43
	c0,4.09,0,8.17,0,12.23s-2.24,6.31-6.46,6.29h-0.49c-12,0.28-12.23,0.14-12.23-11.69c0-20.26-0.1-40.54,0.09-60.8
	c0-4.02-1.12-5.24-5.24-5.24c-22.67,0.2-45.34,0.2-68.02,0c-4.49,0-5.54,1.62-5.5,5.75c0.16,21.26,0,42.5,0,63.74
	c0,7.07-1.24,8.28-8.3,8.3c-9.19,0-10.71-1.15-10.71-8.56c0-21.08-0.12-42.17,0-63.25c0-4.24-0.84-6.1-5.68-5.99
	c-14.39,0.31-11.96,1.01-12.14-12.38c0-6.36,0.1-6.46,6.71-6.52c11-0.09,11-0.09,11-11.27c-0.08-1.31-0.08-2.62,0-3.93
	c0.44-3.49-1.34-4.68-4.59-4.45c-1.16,0.07-2.33,0.07-3.49,0c-7.6-0.42-9.69-2.64-9.71-10.24V3.78c7.37,2.13,13.97,4.4,20.73,5.89
	c5.43,1.22,10.98,1.87,16.54,1.96c26.11,0.19,52.24,0.31,78.36,0c12.98-0.16,25.55-2.6,36.84-9.59L544.53,2.05z M442.04,40.48
	c-15.98,0-15.98,0-15.13,15.44c0,0.33-0.12,0.79,0,0.96c1.08,1.1,2.22,3,3.39,3.04c7.69,0.28,15.37,0.3,23.06,0
	c1.63-0.47,2.9-1.74,3.37-3.37c0.44-4.02,0-8.12,0.21-12.23c0.12-3.11-1.4-3.96-4.16-3.9c-3.55,0.24-7.16,0.12-10.65,0.12
	L442.04,40.48z M476.13,40.84c-0.19,4.83-0.05,9.68-0.04,14.51c0,1,0.02,2.05,0.54,2.91c0.98,1.61,3.19,1.79,5.07,1.8
	c6.86,0.02,13.71,0.09,20.56-0.12c2.81-0.62,3.21-3.47,3.21-5.92c-0.01-4.4-0.02-8.81-0.03-13.21
	C503.26,40.81,476.13,40.84,476.13,40.84z"/>
<path class="st0" d="M928.18,60.91c-1.07,7.88-2.71,15.72-3.06,23.62c-0.87,18.6-1.15,37.22-1.59,55.89c-0.14,5.54,0,11.07,0,16.91
	c-3.91,1.75-6.71,0.93-9.38-3.25c-14.67-23.04-29.69-45.89-44.51-68.8c-0.94-1.47-1.97-2.86-3.88-5.57c0,3.49,0,5.5,0,7.49
	c0.8,20.55,1.62,41.11,2.46,61.68c0.07,0.81,0.07,1.63,0,2.45c-0.3,2.53,1.05,6.03-3.3,6.39s-5.15-2.25-5.38-5.8
	c-0.59-9.29-1.47-18.55-2.06-27.84c-1.17-17.92-2.22-35.84-3.32-53.76c-0.1-0.65-0.15-1.3-0.16-1.96c0.14-3.84-0.68-8.19,4.28-9.89
	c3.58-1.24,8.49,1.22,11.09,5.36c8.31,13.32,16.61,26.65,24.89,39.98c5.97,9.59,11.91,19.21,17.9,28.73
	c0.77,1.28,1.91,2.3,3.27,2.93c0-2.15,0-4.3,0-6.43c-0.26-14.71-0.91-29.41-0.68-44.1c0.32-7.63,1.27-15.23,2.85-22.71
	c1.4-7.48,3.27-8.3,10.58-6.13L928.18,60.91z"/>
<path class="st0" d="M743.12,103.55c3.79-9.34,7.13-17.57,10.48-25.82c1.1-2.72,1.97-5.57,3.32-8.16c0.88-1.9,2.22-3.55,3.9-4.8
	c4.14-2.65,6.08-1.75,6.76,3.09c3.49,24.86,6.99,49.72,10.48,74.57c0.29,3.09,0.75,6.15,1.38,9.19c0.84,3.28-0.49,5.64-3.39,5.68
	c-2.2-0.46-4.03-1.99-4.86-4.09c-1.31-5.36-1.75-10.93-2.52-16.42c-2.21-15.49-4.45-30.97-6.71-46.46c-0.1-0.79-0.37-1.55-0.82-3.49
	c-1.21,2.48-2.04,3.96-2.69,5.54c-3.39,8.31-6.59,16.7-10.2,24.91c-1,1.64-2.62,2.82-4.49,3.28c-2.34,0.94-4.99-0.2-5.93-2.54
	c-0.02-0.06-0.04-0.11-0.06-0.17c-2.41-5.48-5.38-10.69-8.86-15.56c-0.09,1.75-0.23,3.32-0.23,4.98c0,14.71-0.16,29.41,0.09,44.12
	c0,3.96-1.75,4.47-4.94,4.7c-3.49,0.26-4.68-1.15-4.75-4.42c-0.35-13.97-0.82-28.07-1.19-42.1c-0.33-13.71-0.7-27.44-0.75-41.15
	c0.04-2.08,1.05-4.02,2.74-5.24c2.85-1.33,5.14,0.1,6.5,3.25c4.59,10.65,9.4,21.2,14.13,31.79
	C741.14,99.69,741.88,101.07,743.12,103.55z"/>
<path class="st0" d="M589.41,86.08c-0.71,1.65-1.29,3.36-1.75,5.1c-0.73,3.49-2.53,3.35-4.89,1.64c-3.74-2.67-5.75-6.11-3.32-10.48
	c1.57-3.21,3.72-6.11,6.34-8.54c12.23-9.99,26.2-14.55,42.1-12.52c8.73,1.14,13.8,9.64,10.48,19.62
	c-2.38,7.09-6.99,13.43-10.79,20.03c-1.03,1.48-2.2,2.84-3.49,4.09c0.33,0.59,0.47,1.14,0.8,1.36c13.97,9.4,20.14,23.09,21.99,39.23
	c0.31,2.74,1.5,5.41,1.54,8.12c0,1.64-1.05,4.4-2.18,4.72c-2.15,0.59-5.05,1.36-5.92-2.79c-1.54-7.32-3.69-14.5-5.78-21.69
	c-0.78-2.49-1.83-4.88-3.13-7.14c-6.57-11.79-12.58-13.55-27.32-9.52c-3,0.82-3.49,2.93-3.49,5.64c0,5.76,0.1,11.52,0.07,17.28
	c-0.02,5.01,1.25,11.45-2.57,15.36c-0.12,0.12-0.25,0.25-0.42,0.27c-0.18,0.02-0.34-0.07-0.49-0.17c-1.79-1.11-3.53-2.28-5.24-3.51
	c-0.32-0.23-0.65-0.48-0.84-0.83c-0.23-0.42-0.23-0.92-0.23-1.4c0.26-19.69,0.09-39.39,0.09-59.08c0-1.52-0.21-3.06-0.31-4.58
	L589.41,86.08z M600.66,109.86c1.41-0.14,2.8-0.44,4.14-0.89c11.91-6.52,20.96-15.58,24.98-28.79c1.75-5.75-1-10.13-6.9-10.32
	c-5.69,0.01-11.36,0.59-16.93,1.75c-3.63,0.63-5.33,3.49-5.24,7.2c0,6.36,0,12.72,0,19.07L600.66,109.86z"/>
<path class="st0" d="M256.66,113.8c-8.93,1.54-16.79,2.93-24.68,4.21c-3.06,0.49-3.3,2.43-3.28,4.94c0,11.74,0,23.48,0,35.84h-6.22
	c-2.88,0-4.16-1.4-4.1-4.23c0.49-26.2,0.87-52.28,1.48-78.41c0.19-7.46,1.05-14.92,1.61-22.29c6.67-1.34,7.21-0.93,7.21,5.24
	c0,14.22,0.16,28.45,0,42.67c0,3.96,1.34,5.1,5.07,5.01c7.34-0.17,14.67,0,22.1,0c0-18.45,0-36.07,0-53.71
	c0-2.13-1.29-5.24,2.74-5.61c3.29-0.33,6.23,2.07,6.56,5.37c0.03,0.25,0.03,0.51,0.03,0.77c0,33.36,0,66.71,0,100.05
	c0,1.59-1.59,4.33-2.76,4.52c-2.11,0.6-4.3-0.62-4.9-2.73c-0.11-0.39-0.16-0.8-0.15-1.2c-0.22-9.32-0.43-18.63-0.61-27.95
	C256.61,122.45,256.66,118.56,256.66,113.8z"/>
<path class="st0" d="M844.23,65.58c1.59,7.42-0.44,9.03-6.74,9.92c-13.73,1.94-27.34,4.7-40.93,7.37c-1.48,0.72-2.48,2.15-2.65,3.79
	c0.38,6.81,1.08,13.64,2.08,20.4c0.16,0.96,2.55,2.41,3.77,2.29c5.52-0.59,10.97-1.75,16.47-2.55c1.89-0.51,3.87-0.65,5.82-0.4
	c1.77,0.49,3.25,1.72,4.07,3.37c0.77,2.71-0.7,4.44-3.84,4.93c-6.46,0.98-12.86,2.38-19.3,3.49c-3.2,0.56-4.23,2.34-4.14,5.48
	c0.19,6.04,0.26,12.1,0,18.13c-0.19,4.03,1.43,5.01,5.24,4.75c12.93-0.89,25.85-1.54,38.79-2.29c0.8-0.17,1.63-0.21,2.45-0.14
	c2.2,0.56,4.35,1.31,6.52,1.99c-1.75,1.9-3.3,4.93-5.47,5.48c-6.05,1.42-12.19,2.42-18.38,2.99c-10.74,1.16-21.5,2.25-32.28,3.25
	c-6.39,0.56-6.32,0.38-6.45-6.27c-0.35-20.07-0.8-40.17-4.75-59.91c-0.24-1.28-0.56-2.53-0.84-3.81c-1.75-7.93-1.08-10.48,6.6-13.87
	c6.66-3.05,13.72-5.14,20.96-6.24C822.15,66.28,833.39,66.22,844.23,65.58z"/>
<path class="st0" d="M162.27,102.89c5.75,0,11.49,0.09,17.24,0c3.7-0.29,7.19,1.76,8.73,5.14c5.69,12.23,7.21,24.8,0.47,37.15
	c-4.66,8.86-14.14,14.11-24.12,13.34c-7.86-0.31-15.72-2.74-23.41-4.72c-2.5-0.82-4.71-2.35-6.36-4.4
	c-1.03-1.19-0.73-3.49-1.05-5.33c2.03,0,4.49-0.89,6.01,0c8.06,4.54,17.32,6.49,26.53,5.59c12.82-1.21,20.16-13.76,17.19-27.49
	c-0.1-0.47-0.31-0.93-0.44-1.41c-2.36-8.98-3.63-9.43-12.94-8.93c-8.82,0.61-17.67,0.52-26.48-0.28
	c-15.42-1.64-20.96-13.75-12.93-26.97c9.07-14.95,27.39-20.12,42.25-11.28c3.63,2.15,6.08,6.48,8.61,10.13
	c0.79,1.14,0.65,4.3-0.14,4.79c-1.67,0.89-3.65,0.99-5.4,0.26c-4.3-2.36-8.24-5.24-12.35-8.02c-3.31-2.53-7.64-3.32-11.63-2.11
	c-7.9,2.5-14.39,10.95-13.87,18.22c0.26,4.05,1.94,6.38,6.39,6.27c5.9-0.14,11.83,0,17.75,0L162.27,102.89z"/>
<path class="st0" d="M710.47,138.63c0.14,2.53,0.28,5.06,0.42,7.6c0.1,1.79,0.19,3.62-0.27,5.35c-0.94,3.53-5.78,5.58-6.85,0.86
	c-1.63-7.48-2.99-15.01-4.09-22.6c-0.51-3.49-1.97-4.79-5.47-4.49c-7.67,0.65-15.39,0.94-23.04,1.75c-1.15,0.12-2.88,2.41-2.95,3.77
	c-0.31,6.99-0.19,13.97-0.21,21.08c0,3.81-2.59,3.81-5.41,3.86s-4.87-0.8-4.54-4.14c2.03-20.28,3.49-40.63,6.46-60.77
	c0.93-6.34,5.08-12.77,9.26-17.94c5.66-6.99,13.1-6.67,19.7-0.38c7.89,7.51,10.41,17.48,12.53,27.79
	c2.33,11.33,3.57,22.86,4.25,34.39c0.06,0.94,0.11,1.89,0.16,2.83C710.43,137.94,710.45,138.29,710.47,138.63z M671.55,118.56
	c7.93-1.19,14.88-2.11,21.76-3.35c1.28-0.38,2.29-1.38,2.69-2.65c1.15-10.93,0.51-21.57-7.21-30.43c-5.24-5.9-9.15-5.43-12.38,1.75
	C671.61,94.5,671.59,105.89,671.55,118.56z"/>
<path class="st0" d="M67.35,113.61c0,9.87-1.43,19.51-5.94,28.45c-4.89,9.71-12.42,16.58-23.67,16.45
	c-11.91-0.12-20.07-7.23-23.77-18.18c-6.88-20.3-7.25-40.63,2.18-60.45c2.68-5.87,7.31-10.64,13.1-13.48
	c10.93-5.41,21.2-2.76,27.95,7.41c6.36,9.69,8.31,20.79,9.8,31.98C67.28,108.37,67.23,110.99,67.35,113.61z M59.67,113.19
	l-0.79-0.24c-0.47-4.54-0.37-9.22-1.5-13.59c-1.65-7.27-4.04-14.36-7.13-21.15c-3.27-6.59-10.38-8.09-16.35-3.69
	c-4.2,3.03-7.65,6.99-10.08,11.56c-7.9,16.09-7.9,32.89-2.65,49.64c2.57,8.24,7.91,11.72,16.07,11.81
	c9.05,0.09,14.52-3.06,17.26-11.6c2.43-7.37,3.51-15.14,5.1-22.74L59.67,113.19z"/>
<path class="st0" d="M301.78,53.61c0.68,16.33,1.4,32.44,2.03,48.54c0.63,16.79,1.03,33.55,1.87,50.32
	c0.21,4.16-1.75,4.96-5.03,5.33c-3.69,0.42-4.33-1.55-4.44-4.68c-0.94-29.66-1.94-59.32-2.99-88.98c0-1.31,0-2.62,0-3.93
	C293.2,54.01,294.42,52.9,301.78,53.61z"/>
<path class="st0" d="M100.61,53.58c0.61,9.03,1.45,17.78,1.75,26.55c0.54,16.45,0.7,32.93,1.15,49.4
	c0.19,7.83,0.47,15.72,1.12,23.44c0.31,3.72-1.64,4.38-4.49,4.82c-3.21,0.47-4.59-1-4.68-4.03c-0.45-13.97-0.87-27.95-1.38-42.03
	c-0.61-17.12-1.38-34.22-1.94-51.32C91.95,54.49,93.71,53.05,100.61,53.58z"/>
<path class="st0" d="M340.82,156.37c-1.02,0.41-2.06,0.76-3.11,1.07c-4.75,1.15-5.99,0.28-6.15-4.49
	c-0.68-20.96-1.26-42.08-2.01-63.11c-0.35-9.61-1.1-19.21-1.45-28.84c-0.21-2.06,0.3-4.13,1.45-5.85c1.64-1.21,3.66-1.78,5.69-1.61
	c0.61,0,1.75,2.46,1.75,3.84c0.93,26.74,1.75,53.48,2.6,80.24C339.89,143.73,340.47,149.96,340.82,156.37z"/>
</svg>
